<svg width="32" height="32" viewBox="0 0 32 32" fill="none" xmlns="http://www.w3.org/2000/svg">
<rect x="10" y="8" width="12" height="9" fill="white"/>
<path d="M17.4812 31.2C20.6875 27.1875 28 17.4625 28 12C28 5.375 22.625 0 16 0C9.375 0 4 5.375 4 12C4 17.4625 11.3125 27.1875 14.5188 31.2C15.2875 32.1563 16.7125 32.1563 17.4812 31.2ZM16 8C17.0609 8 18.0783 8.42143 18.8284 9.17157C19.5786 9.92172 20 10.9391 20 12C20 13.0609 19.5786 14.0783 18.8284 14.8284C18.0783 15.5786 17.0609 16 16 16C14.9391 16 13.9217 15.5786 13.1716 14.8284C12.4214 14.0783 12 13.0609 12 12C12 10.9391 12.4214 9.92172 13.1716 9.17157C13.9217 8.42143 14.9391 8 16 8Z" fill="#C11C1C"/>
</svg>
